{"title":"He.Got.Game.1998.DVDRip.XviD.VH-PROD","uid":8395647,"size":1464096619,"categoryP":"video","categoryS":"movies","magnet":"?xt=urn:btih:09867b4210a2babbc1104261b6a24f5df0a915de&amp;dn=He.Got.Game.1998.DVDRip.XviD.VH-PROD&amp;tr=udp%3A%2F%2Ftracker.openbittorrent.com%3A80&amp;tr=udp%3A%2F%2Fopen.demonii.com%3A1337&amp;tr=udp%3A%2F%2Ftracker.coppersurfer.tk%3A6969&amp;tr=udp%3A%2F%2Fexodus.desync.com%3A6969","seeders":1,"leechers":0,"uploader":"R0thschild","files":6,"time":1366565944,"description":"--------------------------------------------\n &lt;a href=&quot;\nhttp://www.imdb.com/title/tt0124718/&quot; rel=&quot;nofollow&quot; target=&quot;_NEW&quot;&gt;\nhttp://www.imdb.com/title/tt0124718/&lt;/a&gt;\n\n136 min  -  Drama | Sport  -  1 May 1998 (USA)\n6,8 Your rating:    -/10   Ratings: 6,8/10 from 24 565 users   Metascore: 63/100 \n\nSUBTiTLES.......: Bulgarian\n\nLanguage : English\n\nFormat                           : AVI\nFormat/Info                      : Audio Video Interleave\nFile size                        : 698 MiB\nDuration                         : 1h 8mn\nOverall bit rate                 : 1 415 Kbps\nWriting application              : Nandub v1.0rc2\nWriting library                  : Nandub build 1853/release\n\nVideo\nID                               : 0\nFormat                           : MPEG-4 Visual\nFormat settings, BVOP            : No\nFormat settings, QPel            : No\nFormat settings, GMC             : No warppoints\nFormat settings, Matrix          : Default (H.263)\nCodec ID                         : XVID\nCodec ID/Hint                    : XviD\nDuration                         : 1h 8mn\nBit rate                         : 1 021 Kbps\nWidth                            : 592 pixels\nHeight                           : 320 pixels\nDisplay aspect ratio             : 1.850\nFrame rate                       : 23.976 fps\nColor space                      : YUV\nChroma subsampling               : 4:2:0\nBit depth                        : 8 bits\nScan type                        : Progressive\nCompression mode                 : Lossy\nBits/(Pixel*Frame)               : 0.225\nStream size                      : 504 MiB (72%)\n\nAudio\nID                               : 1\nFormat                           : AC-3\nFormat/Info                      : Audio Coding 3\nMode extension                   : CM (complete main)\nCodec ID                         : 2000\nDuration                         : 1h 8mn\nBit rate mode                    : Constant\nBit rate                         : 384 Kbps\nChannel(s)                       : 6 channels\nChannel positions                : Front: L C R, Side: L R, LFE\nSampling rate                    : 48.0 KHz\nBit depth                        : 16 bits\nCompression mode                 : Lossy\nDelay relative to video          : 24ms\nStream size                      : 189 MiB (27%)\nAlignment                        : Split accross interleaves\nInterleave, duration             : 42 ms (1.00 video frame)\nInterleave, preload duration     : 500 ms\n\n--------------------------------------------\n\nMore at   &lt;a href=&quot;\nhttp://publichash.com/&quot; rel=&quot;nofollow&quot; target=&quot;_NEW&quot;&gt;\nhttp://publichash.com/&lt;/a&gt;\n\n--------------------------------------------\t","torrent":{"xt":"urn:btih:09867b4210a2babbc1104261b6a24f5df0a915de","amp;dn":"He.Got.Game.1998.DVDRip.XviD.VH-PROD","amp;tr":["udp%3A%2F%2Ftracker.openbittorrent.com%3A80","udp%3A%2F%2Fopen.demonii.com%3A1337","udp%3A%2F%2Ftracker.coppersurfer.tk%3A6969","udp%3A%2F%2Fexodus.desync.com%3A6969"],"infoHash":"09867b4210a2babbc1104261b6a24f5df0a915de","infoHashBuffer":{"type":"Buffer","data":[9,134,123,66,16,162,186,187,193,16,66,97,182,162,79,93,240,169,21,222]},"announce":[],"urlList":[]}}